<svg width="301" height="50" viewBox="0 0 301 50" fill="none" xmlns="http://www.w3.org/2000/svg">
<rect width="301" height="50" fill="white"/>
<g clip-path="url(#clip0_440_537)">
<path d="M44 25.5C44 32.127 38.627 37.5 32 37.5C25.373 37.5 20 32.127 20 25.5C20 18.873 25.373 13.5 32 13.5C38.6284 13.5 44 18.873 44 25.5Z" fill="url(#paint0_linear_440_537)"/>
<path d="M25.9205 25.9032L25.9722 25.8218L29.0939 20.9384C29.1395 20.8668 29.2468 20.8743 29.2813 20.9519C29.8028 22.1207 30.2528 23.5743 30.042 24.4792C29.952 24.8515 29.7054 25.3558 29.428 25.8218C29.3923 25.8896 29.3528 25.9562 29.3109 26.0203C29.2912 26.0499 29.2579 26.0672 29.2221 26.0672H26.0117C25.9254 26.0672 25.8749 25.9735 25.9205 25.9032Z" fill="white"/>
<path d="M39.8347 26.8107V27.5837C39.8347 27.6281 39.8076 27.6675 39.7681 27.6848C39.5265 27.7884 38.6992 28.1681 38.3552 28.6464C37.4774 29.8682 36.8067 31.6152 35.3075 31.6152H29.0531C26.8364 31.6152 25.04 29.8128 25.04 27.5886V27.5171C25.04 27.4579 25.0881 27.4099 25.1473 27.4099H28.6339C28.7029 27.4099 28.7535 27.474 28.7473 27.5418C28.7227 27.7686 28.7646 28.0004 28.8719 28.2112C29.079 28.6316 29.508 28.8943 29.9716 28.8943H31.6976V27.5467H29.9913C29.9038 27.5467 29.852 27.4456 29.9026 27.3741C29.9211 27.3458 29.942 27.3162 29.9642 27.2829C30.1257 27.0536 30.3563 26.6972 30.5856 26.2916C30.7421 26.0179 30.8938 25.7257 31.0159 25.4323C31.0405 25.3793 31.0603 25.3251 31.08 25.272C31.1133 25.1783 31.1478 25.0908 31.1724 25.0033C31.1971 24.9293 31.2168 24.8516 31.2365 24.7789C31.2945 24.5298 31.3192 24.266 31.3192 23.9923C31.3192 23.885 31.3142 23.7728 31.3044 23.6656C31.2994 23.5484 31.2846 23.4313 31.2698 23.3142C31.26 23.2106 31.2415 23.1083 31.2217 23.0011C31.1971 22.8445 31.1626 22.6891 31.1231 22.5326L31.1096 22.4734C31.08 22.3661 31.0553 22.2638 31.0208 22.1565C30.9234 21.8199 30.8112 21.492 30.6928 21.185C30.6497 21.063 30.6004 20.9458 30.5511 20.8287C30.4783 20.6524 30.4043 20.4921 30.3365 20.3405C30.302 20.2714 30.2724 20.2086 30.2428 20.1444C30.2096 20.0717 30.175 19.999 30.1405 19.9299C30.1159 19.8769 30.0875 19.8276 30.0678 19.7783L29.8569 19.3887C29.8273 19.3357 29.8767 19.2728 29.9346 19.2888L31.2538 19.6464H31.2575C31.26 19.6464 31.2612 19.6476 31.2624 19.6476L31.4363 19.6957L31.6274 19.7499L31.6976 19.7696V18.9855C31.6976 18.607 32.0009 18.3 32.3757 18.3C32.5631 18.3 32.7333 18.3765 32.8553 18.501C32.9774 18.6255 33.0538 18.7957 33.0538 18.9855V20.1494L33.1944 20.1888C33.2055 20.1925 33.2166 20.1975 33.2264 20.2048C33.2609 20.2307 33.3103 20.269 33.3731 20.3158C33.4225 20.3553 33.4755 20.4034 33.5396 20.4527C33.6666 20.555 33.8182 20.6869 33.9847 20.8386C34.029 20.8768 34.0722 20.9162 34.1116 20.9557C34.3262 21.1554 34.5666 21.3897 34.7959 21.6486C34.86 21.7213 34.9229 21.7953 34.987 21.873C35.0511 21.9519 35.1189 22.0295 35.1781 22.1072C35.2558 22.2108 35.3396 22.318 35.4123 22.4302C35.4469 22.4832 35.4863 22.5375 35.5196 22.5905C35.6133 22.7323 35.6959 22.879 35.7748 23.0257C35.8081 23.0935 35.8426 23.1675 35.8722 23.2402C35.9597 23.4363 36.0288 23.636 36.0732 23.8357C36.0867 23.8789 36.0966 23.9257 36.1015 23.9676V23.9775C36.1163 24.0367 36.1212 24.0996 36.1262 24.1637C36.1459 24.3683 36.136 24.573 36.0917 24.7789C36.0732 24.8664 36.0485 24.949 36.0189 25.0366C35.9893 25.1204 35.9597 25.2079 35.9215 25.2905C35.8476 25.4619 35.76 25.6333 35.6564 25.7935C35.6232 25.8527 35.5837 25.9156 35.5443 25.9748C35.5011 26.0376 35.4567 26.0968 35.4173 26.1548C35.363 26.2288 35.3051 26.3064 35.2459 26.3755C35.1929 26.4482 35.1386 26.521 35.0795 26.5851C34.9969 26.6824 34.918 26.7749 34.8353 26.8637C34.786 26.9216 34.733 26.9808 34.6788 27.0338C34.6257 27.093 34.5715 27.146 34.5222 27.1953C34.4396 27.2779 34.3705 27.342 34.3126 27.3951L34.177 27.5196C34.1573 27.5368 34.1314 27.5467 34.1043 27.5467H33.0538V28.8943H34.3755C34.6714 28.8943 34.9525 28.7895 35.1793 28.5971C35.257 28.5293 35.596 28.2359 35.9967 27.7933C36.0103 27.7785 36.0276 27.7674 36.0473 27.7625L39.6979 26.7071C39.7657 26.6874 39.8347 26.7392 39.8347 26.8107Z" fill="white"/>
</g>
<path d="M68.346 18.4L63.288 28.606L58.23 18.4H54.594L61.074 31H65.502L71.982 18.4H68.346ZM75.7264 18.4H72.4864V31H75.7264V18.4ZM90.2122 20.974V18.4H76.8922V31H90.2122V28.426H80.1322V25.87H90.2122V23.53H80.1322V20.974H90.2122ZM113.416 18.4L109.708 28.318L105.748 18.4H101.77L97.8282 28.3L94.1022 18.4H90.6102L95.5782 31H100.042L103.768 21.514L107.476 31H111.958L116.926 18.4H113.416ZM133.727 31.18C139.253 31.18 141.647 28.858 141.647 24.682C141.647 20.524 139.253 18.22 133.727 18.22C128.183 18.22 125.807 20.506 125.807 24.682C125.807 28.876 128.183 31.18 133.727 31.18ZM133.727 28.462C130.361 28.462 129.047 27.274 129.047 24.682C129.047 22.108 130.343 20.938 133.727 20.938C137.111 20.938 138.407 22.126 138.407 24.682C138.407 27.256 137.093 28.462 133.727 28.462ZM155.552 18.4V27.868L146.948 18.4H142.556V31H145.796V21.55L154.382 31H158.792V18.4H155.552ZM175.772 31.18C181.298 31.18 183.692 28.858 183.692 24.682C183.692 20.524 181.298 18.22 175.772 18.22C170.228 18.22 167.852 20.506 167.852 24.682C167.852 28.876 170.228 31.18 175.772 31.18ZM175.772 28.462C172.406 28.462 171.092 27.274 171.092 24.682C171.092 22.108 172.388 20.938 175.772 20.938C179.156 20.938 180.452 22.126 180.452 24.682C180.452 27.256 179.138 28.462 175.772 28.462ZM194.502 18.4H184.602V31H187.842V27.634H194.502C197.364 27.634 199.326 25.834 199.326 23.026C199.326 20.218 197.364 18.4 194.502 18.4ZM193.602 24.916H187.842V21.118H193.602C194.574 21.118 196.086 21.118 196.086 23.026C196.086 24.916 194.574 24.916 193.602 24.916ZM213.542 20.974V18.4H200.222V31H213.542V28.426H203.462V25.87H213.542V23.53H203.462V20.974H213.542ZM227.45 18.4V27.868L218.846 18.4H214.454V31H217.694V21.55L226.28 31H230.69V18.4H227.45ZM231.495 26.662C231.495 30.298 234.573 31.18 239.739 31.18C244.401 31.18 247.587 30.496 247.587 27.13C247.587 23.944 244.509 23.674 239.541 23.404C235.869 23.188 235.113 23.008 235.113 22.036C235.113 21.1 235.869 20.794 239.055 20.794C242.421 20.794 243.807 21.136 243.807 22.522H247.047C247.047 19.408 244.167 18.22 239.415 18.22C234.699 18.22 231.873 19.102 231.873 21.874C231.873 24.7 234.051 25.564 239.541 25.816C243.627 26.014 244.347 26.194 244.347 27.238C244.347 28.228 243.321 28.606 239.919 28.606C235.815 28.606 234.735 27.994 234.735 26.662H231.495ZM261.811 20.974V18.4H248.491V31H261.811V28.426H251.731V25.87H261.811V23.53H251.731V20.974H261.811ZM276.349 31H279.931L273.415 18.4H269.041L262.543 31H266.107L267.457 28.318H274.999L276.349 31ZM268.663 25.906L271.237 20.794L273.793 25.906H268.663Z" fill="url(#paint1_linear_440_537)"/>
<defs>
<linearGradient id="paint0_linear_440_537" x1="32" y1="13.5" x2="32" y2="37.5" gradientUnits="userSpaceOnUse">
<stop stop-color="#2AB5B5"/>
<stop offset="1" stop-color="#2A80D0"/>
</linearGradient>
<linearGradient id="paint1_linear_440_537" x1="167.5" y1="13" x2="167.5" y2="38" gradientUnits="userSpaceOnUse">
<stop stop-color="#2AB5B5"/>
<stop offset="1" stop-color="#2A80D0"/>
</linearGradient>
<clipPath id="clip0_440_537">
<rect width="24" height="24" fill="white" transform="translate(20 13.5)"/>
</clipPath>
</defs>
</svg>
